<svg id="Layer_2" data-name="Layer 2" xmlns="http://www.w3.org/2000/svg" xmlns:xlink="http://www.w3.org/1999/xlink" viewBox="0 0 993.33 997"><defs><clipPath id="clip-path" transform="translate(-0.83 -1)"><rect x="-1" y="1" width="997" height="997" fill="none"/></clipPath></defs><g clip-path="url(#clip-path)"><circle cx="496.67" cy="498.5" r="495.71" fill="none" stroke="#000" stroke-width="1.91"/><circle cx="497.19" cy="501.66" r="411.6" fill="none" stroke="#1d1d1b" stroke-width="6"/></g><text transform="matrix(0.13, 0.99, -0.99, 0.13, 30.62, 547.05)" font-size="34.45" font-family="WolpePegasus-Bold, Wolpe Pegasus" font-weight="700">P</text><text transform="translate(33.34 567.79) rotate(80.62)" font-size="34.45" font-family="WolpePegasus-Bold, Wolpe Pegasus" font-weight="700">l</text><text transform="translate(34.73 576.64) rotate(79.2)" font-size="34.45" font-family="WolpePegasus-Bold, Wolpe Pegasus" font-weight="700">u</text><text transform="translate(38.25 594.91) rotate(77.08)" font-size="34.45" font-family="WolpePegasus-Bold, Wolpe Pegasus" font-weight="700">t</text><text transform="translate(40.67 605.71) rotate(75.67)" font-size="34.45" font-family="WolpePegasus-Bold, Wolpe Pegasus" font-weight="700">o</text><text transform="matrix(0.27, 0.96, -0.96, 0.27, 45.2, 623)" font-size="34.45" font-family="WolpePegasus-Bold, Wolpe Pegasus" font-weight="700"> </text><text transform="translate(47.26 630.29) rotate(72.87)" font-size="34.45" font-family="WolpePegasus-Bold, Wolpe Pegasus" font-weight="700"> </text><text transform="matrix(0.32, 0.95, -0.95, 0.32, 49.42, 637.56)" font-size="34.45" font-family="WolpePegasus-Bold, Wolpe Pegasus" font-weight="700"> </text><text transform="translate(53.36 649.28) rotate(70.78)" font-size="34.45" font-family="WolpePegasus-Bold, Wolpe Pegasus" font-weight="700"> </text><text transform="matrix(0.44, 0.9, -0.9, 0.44, 53.33, 657.57)" font-size="34.45" font-family="WolpePegasus-Bold, Wolpe Pegasus" font-weight="700"> </text><text transform="translate(98.2 743.91) rotate(57.69)" font-size="34.45" font-family="WolpePegasus-Bold, Wolpe Pegasus" font-weight="700"> </text><text transform="translate(102.29 750.71) rotate(55.64)" font-size="34.45" font-family="WolpePegasus-Bold, Wolpe Pegasus" font-weight="700">N</text><text transform="matrix(0.6, 0.8, -0.8, 0.6, 117.11, 772.26)" font-size="34.45" font-family="WolpePegasus-Bold, Wolpe Pegasus" font-weight="700">e</text><text transform="matrix(0.63, 0.78, -0.78, 0.63, 126.61, 784.95)" font-size="34.45" font-family="WolpePegasus-Bold, Wolpe Pegasus" font-weight="700">p</text><text transform="translate(138.6 799.58) rotate(49.49)" font-size="34.45" font-family="WolpePegasus-Bold, Wolpe Pegasus" font-weight="700">t</text><text transform="translate(146.03 808.28) rotate(47.44)" font-size="34.45" font-family="WolpePegasus-Bold, Wolpe Pegasus" font-weight="700">u</text><text transform="translate(158.66 821.94) rotate(45.38)" font-size="34.45" font-family="WolpePegasus-Bold, Wolpe Pegasus" font-weight="700">n</text><text transform="translate(171.83 835.23) rotate(42.64)" font-size="34.45" font-family="WolpePegasus-Bold, Wolpe Pegasus" font-weight="700">e</text><text transform="matrix(0.75, 0.66, -0.66, 0.75, 183.49, 845.97)" font-size="34.45" font-family="WolpePegasus-Bold, Wolpe Pegasus" font-weight="700"> </text><text transform="matrix(0.8, 0.6, -0.6, 0.8, 188.5, 851.83)" font-size="34.45" font-family="WolpePegasus-Bold, Wolpe Pegasus" font-weight="700"> </text><text transform="matrix(0.85, 0.53, -0.53, 0.85, 244.24, 892.2)" font-size="34.45" font-family="WolpePegasus-Bold, Wolpe Pegasus" font-weight="700"> </text><text transform="matrix(0.85, 0.52, -0.52, 0.85, 250.67, 896.23)" font-size="34.45" font-family="WolpePegasus-Bold, Wolpe Pegasus" font-weight="700"> </text><text transform="translate(257.14 900.18) rotate(30.12)" font-size="34.45" font-family="WolpePegasus-Bold, Wolpe Pegasus" font-weight="700"> </text><text transform="translate(263.69 903.98) rotate(29.42)" font-size="34.45" font-family="WolpePegasus-Bold, Wolpe Pegasus" font-weight="700"> </text><text transform="translate(270.31 907.7) rotate(28.71)" font-size="34.45" font-family="WolpePegasus-Bold, Wolpe Pegasus" font-weight="700"> </text><text transform="translate(276.96 911.32) rotate(27.3)" font-size="34.45" font-family="WolpePegasus-Bold, Wolpe Pegasus" font-weight="700"> </text><text transform="matrix(0.89, 0.45, -0.45, 0.89, 283.69, 914.8)" font-size="34.45" font-family="WolpePegasus-Bold, Wolpe Pegasus" font-weight="700"> </text><text transform="translate(290.41 918.34) rotate(24.46)" font-size="34.45" font-family="WolpePegasus-Bold, Wolpe Pegasus" font-weight="700">U</text><text transform="translate(313.26 928.6) rotate(22.32)" font-size="34.45" font-family="WolpePegasus-Bold, Wolpe Pegasus" font-weight="700">r</text><text transform="translate(325.62 933.7) rotate(20.17)" font-size="34.45" font-family="WolpePegasus-Bold, Wolpe Pegasus" font-weight="700">a</text><text transform="translate(340.73 939.32) rotate(18.02)" font-size="34.45" font-family="WolpePegasus-Bold, Wolpe Pegasus" font-weight="700">n</text><text transform="matrix(0.96, 0.27, -0.27, 0.96, 358.24, 945.07)" font-size="34.45" font-family="WolpePegasus-Bold, Wolpe Pegasus" font-weight="700">u</text><text transform="translate(376.15 950.16) rotate(13.69)" font-size="34.45" font-family="WolpePegasus-Bold, Wolpe Pegasus" font-weight="700">s</text><text transform="matrix(0.98, 0.17, -0.17, 0.98, 388.67, 953.92)" font-size="34.45" font-family="WolpePegasus-Bold, Wolpe Pegasus" font-weight="700"> </text><text transform="matrix(1, 0.01, -0.01, 1, 440.06, 965.14)" font-size="34.45" font-family="WolpePegasus-Bold, Wolpe Pegasus" font-weight="700"> </text><text transform="translate(544.91 963.28) rotate(-6.54)" font-size="34.45" font-family="WolpePegasus-Bold, Wolpe Pegasus" font-weight="700"> </text><text transform="matrix(0.99, -0.14, 0.14, 0.99, 552.45, 962.5)" font-size="34.45" font-family="WolpePegasus-Bold, Wolpe Pegasus" font-weight="700">S</text><text transform="translate(570.26 960) rotate(-10.09)" font-size="34.45" font-family="WolpePegasus-Bold, Wolpe Pegasus" font-weight="700">a</text><text transform="translate(586.13 957.11) rotate(-11.51)" font-size="34.45" font-family="WolpePegasus-Bold, Wolpe Pegasus" font-weight="700">t</text><text transform="matrix(0.97, -0.24, 0.24, 0.97, 597.34, 954.86)" font-size="34.45" font-family="WolpePegasus-Bold, Wolpe Pegasus" font-weight="700">u</text><text transform="matrix(0.96, -0.27, 0.27, 0.96, 615.42, 950.44)" font-size="34.45" font-family="WolpePegasus-Bold, Wolpe Pegasus" font-weight="700">r</text><text transform="translate(628.81 946.76) rotate(-17.83)" font-size="34.45" font-family="WolpePegasus-Bold, Wolpe Pegasus" font-weight="700">n</text><text transform="matrix(0.95, -0.32, 0.32, 0.95, 646.6, 940.98)" font-size="34.45" font-family="WolpePegasus-Bold, Wolpe Pegasus" font-weight="700"> </text><text transform="translate(647.18 940.78) rotate(-19.22)" font-size="34.45" font-family="WolpePegasus-Bold, Wolpe Pegasus" font-weight="700"> </text><text transform="translate(654.33 938.27) rotate(-19.91)" font-size="34.45" font-family="WolpePegasus-Bold, Wolpe Pegasus" font-weight="700"> </text><text transform="matrix(0.93, -0.36, 0.36, 0.93, 661.45, 935.66)" font-size="34.45" font-family="WolpePegasus-Bold, Wolpe Pegasus" font-weight="700"> </text><text transform="matrix(0.93, -0.37, 0.37, 0.93, 668.51, 932.91)" font-size="34.45" font-family="WolpePegasus-Bold, Wolpe Pegasus" font-weight="700"> </text><text transform="matrix(0.92, -0.4, 0.4, 0.92, 675.55, 930.1)" font-size="34.45" font-family="WolpePegasus-Bold, Wolpe Pegasus" font-weight="700"> </text><text transform="matrix(0.91, -0.41, 0.41, 0.91, 682.51, 927.1)" font-size="34.45" font-family="WolpePegasus-Bold, Wolpe Pegasus" font-weight="700"> </text><text transform="translate(689.43 924.01) rotate(-24.76)" font-size="34.45" font-family="WolpePegasus-Bold, Wolpe Pegasus" font-weight="700"> </text><text transform="translate(696.32 920.85) rotate(-26.14)" font-size="34.45" font-family="WolpePegasus-Bold, Wolpe Pegasus" font-weight="700"> </text><text transform="matrix(0.89, -0.45, 0.45, 0.89, 703.14, 917.52)" font-size="34.45" font-family="WolpePegasus-Bold, Wolpe Pegasus" font-weight="700"> </text><text transform="matrix(0.89, -0.46, 0.46, 0.89, 709.9, 914.1)" font-size="34.45" font-family="WolpePegasus-Bold, Wolpe Pegasus" font-weight="700"> </text><text transform="translate(716.62 910.61) rotate(-28.88)" font-size="34.45" font-family="WolpePegasus-Bold, Wolpe Pegasus" font-weight="700"> </text><text transform="matrix(0.87, -0.49, 0.49, 0.87, 723.27, 906.97)" font-size="34.45" font-family="WolpePegasus-Bold, Wolpe Pegasus" font-weight="700"> </text><text transform="matrix(0.86, -0.5, 0.5, 0.86, 729.85, 903.22)" font-size="34.45" font-family="WolpePegasus-Bold, Wolpe Pegasus" font-weight="700"> </text><text transform="matrix(0.85, -0.52, 0.52, 0.85, 736.41, 899.41)" font-size="34.45" font-family="WolpePegasus-Bold, Wolpe Pegasus" font-weight="700"> </text><text transform="translate(742.87 895.44) rotate(-32.31)" font-size="34.45" font-family="WolpePegasus-Bold, Wolpe Pegasus" font-weight="700"> </text><text transform="matrix(0.84, -0.54, 0.54, 0.84, 749.27, 891.38)" font-size="34.45" font-family="WolpePegasus-Bold, Wolpe Pegasus" font-weight="700"> </text><text transform="translate(755.63 887.25) rotate(-34.36)" font-size="34.45" font-family="WolpePegasus-Bold, Wolpe Pegasus" font-weight="700"> </text><text transform="translate(761.89 882.98) rotate(-35.04)" font-size="34.45" font-family="WolpePegasus-Bold, Wolpe Pegasus" font-weight="700"> </text><text transform="matrix(0.81, -0.58, 0.58, 0.81, 768.08, 878.62)" font-size="34.45" font-family="WolpePegasus-Bold, Wolpe Pegasus" font-weight="700"> </text><text transform="matrix(0.8, -0.6, 0.6, 0.8, 774.24, 874.19)" font-size="34.45" font-family="WolpePegasus-Bold, Wolpe Pegasus" font-weight="700">J</text><text transform="matrix(0.78, -0.63, 0.63, 0.78, 783.73, 867.09)" font-size="34.45" font-family="WolpePegasus-Bold, Wolpe Pegasus" font-weight="700">u</text><text transform="matrix(0.75, -0.66, 0.66, 0.75, 798.17, 855.35)" font-size="34.45" font-family="WolpePegasus-Bold, Wolpe Pegasus" font-weight="700">p</text><text transform="matrix(0.73, -0.69, 0.69, 0.73, 812.35, 842.84)" font-size="34.45" font-family="WolpePegasus-Bold, Wolpe Pegasus" font-weight="700">i</text><text transform="translate(819.27 836.42) rotate(-44.62)" font-size="34.45" font-family="WolpePegasus-Bold, Wolpe Pegasus" font-weight="700">t</text><text transform="translate(827.2 828.69) rotate(-45.99)" font-size="34.45" font-family="WolpePegasus-Bold, Wolpe Pegasus" font-weight="700">e</text><text transform="matrix(0.67, -0.74, 0.74, 0.67, 838.24, 817.32)" font-size="34.45" font-family="WolpePegasus-Bold, Wolpe Pegasus" font-weight="700">r</text><text transform="matrix(0.6, -0.8, 0.8, 0.6, 848.54, 807.81)" font-size="34.45" font-family="WolpePegasus-Bold, Wolpe Pegasus" font-weight="700"> </text><text transform="matrix(0.53, -0.85, 0.85, 0.53, 890.37, 750.22)" font-size="34.45" font-family="WolpePegasus-Bold, Wolpe Pegasus" font-weight="700"> </text><text transform="matrix(0.52, -0.85, 0.85, 0.52, 894.41, 743.81)" font-size="34.45" font-family="WolpePegasus-Bold, Wolpe Pegasus" font-weight="700"> </text><text transform="translate(898.37 737.34) rotate(-59.88)" font-size="34.45" font-family="WolpePegasus-Bold, Wolpe Pegasus" font-weight="700"> </text><text transform="translate(902.18 730.79) rotate(-60.58)" font-size="34.45" font-family="WolpePegasus-Bold, Wolpe Pegasus" font-weight="700"> </text><text transform="translate(905.89 724.19) rotate(-61.29)" font-size="34.45" font-family="WolpePegasus-Bold, Wolpe Pegasus" font-weight="700"> </text><text transform="matrix(0.46, -0.89, 0.89, 0.46, 909.54, 717.54)" font-size="34.45" font-family="WolpePegasus-Bold, Wolpe Pegasus" font-weight="700"> </text><text transform="translate(913.02 710.81) rotate(-63.41)" font-size="34.45" font-family="WolpePegasus-Bold, Wolpe Pegasus" font-weight="700"> </text><text transform="translate(916.4 704.03) rotate(-64.12)" font-size="34.45" font-family="WolpePegasus-Bold, Wolpe Pegasus" font-weight="700"> </text><text transform="translate(919.72 697.2) rotate(-65.54)" font-size="34.45" font-family="WolpePegasus-Bold, Wolpe Pegasus" font-weight="700"> </text><text transform="translate(922.87 690.31) rotate(-66.25)" font-size="34.45" font-family="WolpePegasus-Bold, Wolpe Pegasus" font-weight="700"> </text><text transform="translate(926.11 683.45) rotate(-68.39)" font-size="34.45" font-family="WolpePegasus-Bold, Wolpe Pegasus" font-weight="700">M</text><text transform="translate(937.4 654.13) rotate(-71.26)" font-size="34.45" font-family="WolpePegasus-Bold, Wolpe Pegasus" font-weight="700">a</text><text transform="translate(942.54 638.85) rotate(-73.42)" font-size="34.45" font-family="WolpePegasus-Bold, Wolpe Pegasus" font-weight="700">r</text><text transform="matrix(0.26, -0.97, 0.97, 0.26, 946.49, 625.53)" font-size="34.45" font-family="WolpePegasus-Bold, Wolpe Pegasus" font-weight="700">s</text><text transform="translate(950.63 613.12) rotate(-79.21)" font-size="34.45" font-family="WolpePegasus-Bold, Wolpe Pegasus" font-weight="700"> </text><text transform="matrix(0.01, -1, 1, 0.01, 963.64, 554.51)" font-size="34.45" font-family="WolpePegasus-Bold, Wolpe Pegasus" font-weight="700"> </text><text transform="translate(48.12 476.31) rotate(-84.89)" font-size="33.11" font-family="WolpePegasus-Bold, Wolpe Pegasus" font-weight="700">A</text><text transform="translate(50.36 453.24) rotate(-82.74)" font-size="33.11" font-family="WolpePegasus-Bold, Wolpe Pegasus" font-weight="700">s</text><text transform="translate(51.97 440.83) rotate(-80.58)" font-size="33.11" font-family="WolpePegasus-Bold, Wolpe Pegasus" font-weight="700">c</text><text transform="translate(54.2 427.37) rotate(-79.13)" font-size="33.11" font-family="WolpePegasus-Bold, Wolpe Pegasus" font-weight="700">e</text><text transform="matrix(0.23, -0.97, 0.97, 0.23, 57.12, 412.42)" font-size="33.11" font-family="WolpePegasus-Bold, Wolpe Pegasus" font-weight="700">n</text><text transform="matrix(0.26, -0.96, 0.96, 0.26, 61.25, 394.92)" font-size="33.11" font-family="WolpePegasus-Bold, Wolpe Pegasus" font-weight="700">d</text><text transform="translate(66.15 377.32) rotate(-72.61)" font-size="33.11" font-family="WolpePegasus-Bold, Wolpe Pegasus" font-weight="700">a</text><text transform="translate(70.81 362.54) rotate(-70.44)" font-size="33.11" font-family="WolpePegasus-Bold, Wolpe Pegasus" font-weight="700">n</text><text transform="matrix(0.37, -0.93, 0.93, 0.37, 76.9, 345.62)" font-size="33.11" font-family="WolpePegasus-Bold, Wolpe Pegasus" font-weight="700">t</text><text transform="translate(80.07 334.99) rotate(-63.92)" font-size="33.11" font-family="WolpePegasus-Bold, Wolpe Pegasus" font-weight="700"> </text><text transform="matrix(0.52, -0.86, 0.86, 0.52, 109.61, 277.58)" font-size="33.11" font-family="WolpePegasus-Bold, Wolpe Pegasus" font-weight="700"> </text><text transform="matrix(0.53, -0.85, 0.85, 0.53, 113.37, 271.34)" font-size="33.11" font-family="WolpePegasus-Bold, Wolpe Pegasus" font-weight="700"> </text><text transform="matrix(0.56, -0.83, 0.83, 0.56, 117.27, 264.79)" font-size="33.11" font-family="WolpePegasus-Bold, Wolpe Pegasus" font-weight="700">D</text><text transform="translate(130.71 244.9) rotate(-53.2)" font-size="33.11" font-family="WolpePegasus-Bold, Wolpe Pegasus" font-weight="700">e</text><text transform="matrix(0.62, -0.79, 0.79, 0.62, 139.98, 232.48)" font-size="33.11" font-family="WolpePegasus-Bold, Wolpe Pegasus" font-weight="700">c</text><text transform="translate(148.41 221.75) rotate(-49.67)" font-size="33.11" font-family="WolpePegasus-Bold, Wolpe Pegasus" font-weight="700">e</text><text transform="matrix(0.67, -0.74, 0.74, 0.67, 158.23, 210.11)" font-size="33.11" font-family="WolpePegasus-Bold, Wolpe Pegasus" font-weight="700">n</text><text transform="matrix(0.7, -0.71, 0.71, 0.7, 170.36, 196.83)" font-size="33.11" font-family="WolpePegasus-Bold, Wolpe Pegasus" font-weight="700">d</text><text transform="matrix(0.73, -0.69, 0.69, 0.73, 183.22, 183.84)" font-size="33.11" font-family="WolpePegasus-Bold, Wolpe Pegasus" font-weight="700">a</text><text transform="translate(194.51 173.23) rotate(-41.31)" font-size="33.11" font-family="WolpePegasus-Bold, Wolpe Pegasus" font-weight="700">n</text><text transform="translate(208.09 161.44) rotate(-39.24)" font-size="33.11" font-family="WolpePegasus-Bold, Wolpe Pegasus" font-weight="700">t</text><text transform="matrix(0.79, -0.61, 0.61, 0.79, 216.6, 154.49)" font-size="33.11" font-family="WolpePegasus-Bold, Wolpe Pegasus" font-weight="700"> </text><text transform="translate(222.1 149.68) rotate(-35.12)" font-size="33.11" font-family="WolpePegasus-Bold, Wolpe Pegasus" font-weight="700"> </text><text transform="translate(253.89 127.8) rotate(-32.38)" font-size="33.11" font-family="WolpePegasus-Bold, Wolpe Pegasus" font-weight="700"> </text><text transform="translate(260.04 123.89) rotate(-31.01)" font-size="33.11" font-family="WolpePegasus-Bold, Wolpe Pegasus" font-weight="700"> </text><text transform="matrix(0.86, -0.5, 0.5, 0.86, 266.27, 120.12)" font-size="33.11" font-family="WolpePegasus-Bold, Wolpe Pegasus" font-weight="700"> </text><text transform="translate(272.57 116.45) rotate(-29.64)" font-size="33.11" font-family="WolpePegasus-Bold, Wolpe Pegasus" font-weight="700"> </text><text transform="matrix(0.88, -0.47, 0.47, 0.88, 278.89, 112.84)" font-size="33.11" font-family="WolpePegasus-Bold, Wolpe Pegasus" font-weight="700"> </text><text transform="translate(285.3 109.37) rotate(-27.59)" font-size="33.11" font-family="WolpePegasus-Bold, Wolpe Pegasus" font-weight="700"> </text><text transform="translate(291.76 106.01) rotate(-26.91)" font-size="33.11" font-family="WolpePegasus-Bold, Wolpe Pegasus" font-weight="700"> </text><text transform="translate(298.25 102.7) rotate(-25.54)" font-size="33.11" font-family="WolpePegasus-Bold, Wolpe Pegasus" font-weight="700"> </text><text transform="translate(304.82 99.56) rotate(-24.86)" font-size="33.11" font-family="WolpePegasus-Bold, Wolpe Pegasus" font-weight="700"> </text><text transform="translate(311.44 96.51) rotate(-24.18)" font-size="33.11" font-family="WolpePegasus-Bold, Wolpe Pegasus" font-weight="700"> </text><text transform="matrix(0.93, -0.37, 0.37, 0.93, 317.98, 93.28)" font-size="33.11" font-family="WolpePegasus-Bold, Wolpe Pegasus" font-weight="700">M</text><text transform="matrix(0.95, -0.32, 0.32, 0.95, 345.81, 82.52)" font-size="33.11" font-family="WolpePegasus-Bold, Wolpe Pegasus" font-weight="700">o</text><text transform="translate(362.35 76.97) rotate(-16.64)" font-size="33.11" font-family="WolpePegasus-Bold, Wolpe Pegasus" font-weight="700">o</text><text transform="translate(378.82 72.04) rotate(-13.88)" font-size="33.11" font-family="WolpePegasus-Bold, Wolpe Pegasus" font-weight="700">n</text><text transform="translate(396.15 67.05) rotate(-9.72)" font-size="33.11" font-family="WolpePegasus-Bold, Wolpe Pegasus" font-weight="700"> </text><text transform="translate(450 55.56) rotate(0.83)" font-size="33.11" font-family="WolpePegasus-Bold, Wolpe Pegasus" font-weight="700"> </text><text transform="translate(554.78 60.03) rotate(7.98)" font-size="33.11" font-family="WolpePegasus-Bold, Wolpe Pegasus" font-weight="700"> </text><text transform="translate(561.99 61.04) rotate(8.7)" font-size="33.11" font-family="WolpePegasus-Bold, Wolpe Pegasus" font-weight="700"> </text><text transform="translate(569.2 62.12) rotate(10.14)" font-size="33.11" font-family="WolpePegasus-Bold, Wolpe Pegasus" font-weight="700">S</text><text transform="translate(585.94 65.18) rotate(12.31)" font-size="33.11" font-family="WolpePegasus-Bold, Wolpe Pegasus" font-weight="700">u</text><text transform="matrix(0.96, 0.26, -0.26, 0.96, 603.42, 68.98)" font-size="33.11" font-family="WolpePegasus-Bold, Wolpe Pegasus" font-weight="700">n</text><text transform="matrix(0.95, 0.31, -0.31, 0.95, 620.85, 73.44)" font-size="33.11" font-family="WolpePegasus-Bold, Wolpe Pegasus" font-weight="700"> </text><text transform="matrix(0.89, 0.46, -0.46, 0.89, 657.7, 82.63)" font-size="33.11" font-family="WolpePegasus-Bold, Wolpe Pegasus" font-weight="700"> </text><text transform="matrix(0.82, 0.57, -0.57, 0.82, 749.32, 133.63)" font-size="33.11" font-family="WolpePegasus-Bold, Wolpe Pegasus" font-weight="700"> </text><text transform="translate(755.32 137.78) rotate(35.38)" font-size="33.11" font-family="WolpePegasus-Bold, Wolpe Pegasus" font-weight="700"> </text><text transform="translate(761.24 142.01) rotate(36.09)" font-size="33.11" font-family="WolpePegasus-Bold, Wolpe Pegasus" font-weight="700"> </text><text transform="matrix(0.78, 0.63, -0.63, 0.78, 767.28, 146.12)" font-size="33.11" font-family="WolpePegasus-Bold, Wolpe Pegasus" font-weight="700">M</text><text transform="matrix(0.75, 0.67, -0.67, 0.75, 790.4, 164.97)" font-size="33.11" font-family="WolpePegasus-Bold, Wolpe Pegasus" font-weight="700">e</text><text transform="translate(801.79 175.09) rotate(43.83)" font-size="33.11" font-family="WolpePegasus-Bold, Wolpe Pegasus" font-weight="700">r</text><text transform="translate(811.08 183.96) rotate(45.22)" font-size="33.11" font-family="WolpePegasus-Bold, Wolpe Pegasus" font-weight="700">c</text><text transform="matrix(0.68, 0.73, -0.73, 0.68, 820.74, 193.6)" font-size="33.11" font-family="WolpePegasus-Bold, Wolpe Pegasus" font-weight="700">u</text><text transform="matrix(0.65, 0.76, -0.76, 0.65, 832.87, 206.74)" font-size="33.11" font-family="WolpePegasus-Bold, Wolpe Pegasus" font-weight="700">r</text><text transform="translate(841.88 217.25) rotate(50.76)" font-size="33.11" font-family="WolpePegasus-Bold, Wolpe Pegasus" font-weight="700">y</text><text transform="matrix(0.56, 0.83, -0.83, 0.56, 852.13, 227.97)" font-size="33.11" font-family="WolpePegasus-Bold, Wolpe Pegasus" font-weight="700"> </text><text transform="translate(889.81 286.99) rotate(61.04)" font-size="33.11" font-family="WolpePegasus-Bold, Wolpe Pegasus" font-weight="700"> </text><text transform="translate(893.34 293.37) rotate(62.41)" font-size="33.11" font-family="WolpePegasus-Bold, Wolpe Pegasus" font-weight="700"> </text><text transform="translate(896.71 299.82) rotate(63.09)" font-size="33.11" font-family="WolpePegasus-Bold, Wolpe Pegasus" font-weight="700"> </text><text transform="translate(900 306.32) rotate(63.77)" font-size="33.11" font-family="WolpePegasus-Bold, Wolpe Pegasus" font-weight="700"> </text><text transform="translate(903.2 312.87) rotate(65.14)" font-size="33.11" font-family="WolpePegasus-Bold, Wolpe Pegasus" font-weight="700"> </text><text transform="matrix(0.41, 0.91, -0.91, 0.41, 906.27, 319.48)" font-size="33.11" font-family="WolpePegasus-Bold, Wolpe Pegasus" font-weight="700"> </text><text transform="translate(909.37 326.07) rotate(67.88)" font-size="33.11" font-family="WolpePegasus-Bold, Wolpe Pegasus" font-weight="700">V</text><text transform="translate(916.78 344.29) rotate(69.93)" font-size="33.11" font-family="WolpePegasus-Bold, Wolpe Pegasus" font-weight="700">e</text><text transform="translate(922.05 358.58) rotate(71.99)" font-size="33.11" font-family="WolpePegasus-Bold, Wolpe Pegasus" font-weight="700">n</text><text transform="matrix(0.27, 0.96, -0.96, 0.27, 927.52, 375.43)" font-size="33.11" font-family="WolpePegasus-Bold, Wolpe Pegasus" font-weight="700">u</text><text transform="translate(932.36 392.65) rotate(76.12)" font-size="33.11" font-family="WolpePegasus-Bold, Wolpe Pegasus" font-weight="700">s</text><text transform="translate(937.33 404.47) rotate(82.37)" font-size="33.11" font-family="WolpePegasus-Bold, Wolpe Pegasus" font-weight="700"> </text><text transform="matrix(-0.08, 1, -1, -0.08, 949.7, 487.2)" font-size="33.11" font-family="WolpePegasus-Bold, Wolpe Pegasus" font-weight="700"> </text><g clip-path="url(#clip-path)"><line x1="496.86" x2="496.86" y2="497.71" fill="none" stroke="#1d1d1b" stroke-width="6"/><line x1="499.29" y1="499.93" x2="499.29" y2="997" fill="none" stroke="#000" stroke-width="0.33"/><line x1="496.83" y1="499.93" x2="496.83" y2="997" fill="none" stroke="#000" stroke-width="0.33"/><line x1="494.43" y1="499.93" x2="494.43" y2="997" fill="none" stroke="#000" stroke-width="0.33"/></g><line x1="991" y1="504.46" x2="3.37" y2="504.46" fill="none" stroke="#000" stroke-width="0.33"/><line x1="991" y1="502" x2="3.37" y2="502" fill="none" stroke="#000" stroke-width="0.33"/><line x1="991" y1="499.6" x2="3.37" y2="499.6" fill="none" stroke="#000" stroke-width="0.33"/><line x1="770.89" y1="84.59" x2="229.72" y2="917.92" fill="none" stroke="#000" stroke-width="0.33"/><line x1="768.83" y1="83.25" x2="227.66" y2="916.58" fill="none" stroke="#000" stroke-width="0.33"/><line x1="766.82" y1="81.94" x2="225.65" y2="915.28" fill="none" stroke="#000" stroke-width="0.33"/><line x1="494.1" y1="503.32" x2="61.51" y2="258.58" fill="none" stroke="#000" stroke-width="0.33"/><line x1="495.31" y1="501.19" x2="62.72" y2="256.44" fill="none" stroke="#000" stroke-width="0.33"/><line x1="496.49" y1="499.1" x2="63.9" y2="254.35" fill="none" stroke="#000" stroke-width="0.33"/><line x1="927.8" y1="745.44" x2="849.01" y2="700.86" fill="none" stroke="#1d1d1b" stroke-width="2.23"/><line x1="744.79" y1="927.78" x2="243.06" y2="76.02" fill="none" stroke="#000" stroke-width="0.33"/><line x1="746.9" y1="926.53" x2="245.18" y2="74.77" fill="none" stroke="#000" stroke-width="0.33"/><line x1="748.97" y1="925.31" x2="247.25" y2="73.55" fill="none" stroke="#000" stroke-width="0.33"/><line x1="59.49" y1="729.78" x2="498.94" y2="501.02" fill="none" stroke="#1d1d1b" stroke-width="6"/><g clip-path="url(#clip-path)"><path d="M660.16,94.42a20.43,20.43,0,1,0-20.4-20.78,20.4,20.4,0,0,0,20.4,20.78m.07-44.81a24.53,24.53,0,1,1-24.57,24.54,24.54,24.54,0,0,1,24.57-24.54" transform="translate(-0.83 -1)" fill="#1d1d1b"/><path d="M660.19,68.55A5.45,5.45,0,1,1,654.73,74a5.46,5.46,0,0,1,5.46-5.44" transform="translate(-0.83 -1)" fill="#1d1d1b"/><path d="M418.56,31.51c8.62,4.47,13.28,11,13.69,19.66-.11,8.72-4.54,15.36-12.93,20.09,7.48.37,16.25-2.72,21.09-10.08a17.69,17.69,0,0,0-1.81-22.11c-5.1-5.54-11.84-7.94-20-7.56m2.85,42.62a30.87,30.87,0,0,1-8.11-.84A1.51,1.51,0,0,1,412,72a1.41,1.41,0,0,1,1.16-1.42A24.79,24.79,0,0,0,420,67.36,20.09,20.09,0,0,0,428.09,57a16.83,16.83,0,0,0,.79-7.2,18.52,18.52,0,0,0-6.15-11.89,23.12,23.12,0,0,0-10-5.36c-.74-.19-1.28-.53-1.39-1.25a1.32,1.32,0,0,1,.95-1.47c1-.28,2-.53,3-.73a26.57,26.57,0,0,1,5-.49,28.39,28.39,0,0,1,16.45,4.85,22.15,22.15,0,0,1,9.29,12.69,19.24,19.24,0,0,1,.61,6.45,20.83,20.83,0,0,1-5.79,13A26.36,26.36,0,0,1,428.62,73a29.12,29.12,0,0,1-7.21,1.14" transform="translate(-0.83 -1)" fill="#1d1d1b"/><path d="M876.74,256.08A9.74,9.74,0,1,0,867,245.87a9.71,9.71,0,0,0,9.72,10.21m1.54,10.25v2.31a1.16,1.16,0,0,1-1.16,1.16h-.87a1,1,0,0,1-1-1v-2.45a.07.07,0,0,0-.08-.07h-2.43a1.08,1.08,0,0,1-1.08-1.08v-.74a1.24,1.24,0,0,1,1.24-1.24h2.24a.08.08,0,0,0,.08-.08v-4a.07.07,0,0,0-.07-.07c-5.61-1.06-9.3-4.23-10.85-9.78h0c-1.19-6.37,1.16-11.1,6.58-14.41a.08.08,0,0,0,0-.13,11,11,0,0,1-4.86-7.18,1,1,0,0,1,.88-1.18l.76-.07a1.25,1.25,0,0,1,1.41.94,7.83,7.83,0,0,0,2.68,4.32,8,8,0,0,0,12.85-4.22,1.39,1.39,0,0,1,1.48-1l.39,0a1.24,1.24,0,0,1,1.14,1.52,11,11,0,0,1-4.87,6.91.08.08,0,0,0,0,.13c5.42,3.4,7.74,8.17,6.43,14.58h0c-1.61,5.42-5.26,8.52-10.79,9.55a.09.09,0,0,0-.06.08v3.94a.08.08,0,0,0,.08.08h2.07a1.37,1.37,0,0,1,1.37,1.37v.3a1.39,1.39,0,0,1-1.39,1.39h-2.08a.08.08,0,0,0-.07.08" transform="translate(-0.83 -1)" fill="#1d1d1b"/><path d="M964.45,440.82a13.11,13.11,0,1,0-13.27,13.06,13.08,13.08,0,0,0,13.27-13.06m-21,27.83V465a.46.46,0,0,1,.46-.45h4.87a.46.46,0,0,0,.45-.46v-4.92a1.41,1.41,0,0,0-1.14-1.39,17.29,17.29,0,1,1,6.23.05,1.12,1.12,0,0,0-.91,1.1V464a.45.45,0,0,0,.45.45h4.88a.46.46,0,0,1,.46.45v3.69l-1.27,0h-4.14c-.3,0-.41.08-.4.4,0,1.78,0,3.13,0,4.91v.89c0,.55-4.13.5-4.13,0v-1c0-1.78,0-2.93,0-4.72,0-.36-.12-.44-.45-.43" transform="translate(-0.83 -1)" fill="#1d1d1b"/><path d="M943.56,583.59A13.41,13.41,0,0,0,957,569.93a13.46,13.46,0,1,0-13.45,13.66m19.86-36.31h-6.37V543.1H970.6v13.54h-4.16V550.4l-8.92,8.91c.24.35.54.75.81,1.17a16.85,16.85,0,0,1,2.79,7.79,17.35,17.35,0,0,1-4.25,13.47,16.85,16.85,0,0,1-10.1,5.77,17.24,17.24,0,0,1-14.69-4,16.88,16.88,0,0,1-5.82-9.86,17.24,17.24,0,0,1,3.37-14.4,17,17,0,0,1,10.11-6.38,17.32,17.32,0,0,1,14.42,3.1c.19.14.32.25.54,0,2.82-2.85,5.66-5.67,8.49-8.51l.23-.25" transform="translate(-0.83 -1)" fill="#1d1d1b"/><path d="M847.16,784.67l0-1.06a1.22,1.22,0,0,1,1.25-1.19h.63a11.19,11.19,0,0,0,6.57-2.37,16.78,16.78,0,0,0,5.79-8.66,14.65,14.65,0,0,0,.65-5.8,7.23,7.23,0,0,0-2.05-4.66,6,6,0,0,0-4.31-1.69,7.07,7.07,0,0,0-6.4,4.92,5.19,5.19,0,0,0,.19,3,1.94,1.94,0,0,0,.41.66,2,2,0,0,1,.56,1.46l0,1a1,1,0,0,1-1.33.94h0c-2.24-.89-3.14-3-3.28-5.55a8.49,8.49,0,0,1,1.8-5.61,10.28,10.28,0,0,1,6.32-4,9.17,9.17,0,0,1,7.77,1.89,10,10,0,0,1,3.56,6.31,15.06,15.06,0,0,1,.18,4,20.73,20.73,0,0,1-1.93,7,20.43,20.43,0,0,1-4,5.85c-.41.41-.84.79-1.29,1.19a.15.15,0,0,0,.09.26l10.58.18a.14.14,0,0,0,.15-.14l.42-24a1.81,1.81,0,0,1,1.84-1.78,1.58,1.58,0,0,1,1.55,1.61l-.42,24.26a.15.15,0,0,0,.14.15l3.32.06a1,1,0,0,1,.93,1,2.42,2.42,0,0,1-2.46,2.38l-1.84,0a.15.15,0,0,0-.15.15l-.11,6.2a1.46,1.46,0,0,1-1.49,1.43h-.56a1.35,1.35,0,0,1-1.33-1.37l.11-6.3a.15.15,0,0,0-.14-.15l-20.53-.36a1.15,1.15,0,0,1-1.13-1.17" transform="translate(-0.83 -1)" fill="#1d1d1b"/><path d="M668.16,934.93l-2.8.05a.42.42,0,0,1-.43-.41l-.41-23.83a.42.42,0,0,0-.43-.41l-2.84,0a.43.43,0,0,1-.43-.41l0-2.41a.43.43,0,0,1,.41-.43l2.83,0a.41.41,0,0,0,.41-.42l0-2.7a.43.43,0,0,1,.41-.43l2.41,0a.41.41,0,0,1,.42.41l0,2.67a.42.42,0,0,0,.43.41l5.24-.09a.41.41,0,0,1,.42.41l0,2.44a.41.41,0,0,1-.41.42l-5.22.09a.41.41,0,0,0-.4.43l.07,4.27a.42.42,0,0,0,.68.32,11.73,11.73,0,0,1,2.68-1.6,11.26,11.26,0,0,1,3.58-1,7.62,7.62,0,0,1,5.3,1.13,8.77,8.77,0,0,1,3.26,4.26,12.74,12.74,0,0,1,.89,5.56A17.87,17.87,0,0,1,679.48,935a9.75,9.75,0,0,0-2.27,3.59,4,4,0,0,0-.21,1.91,1.84,1.84,0,0,0,1.54,1.31.71.71,0,0,0,.42-.14c.43-.34.84-.71,1.25-1.08a4.91,4.91,0,0,0,.43-.48l1.46,1.41a1.25,1.25,0,0,1,0,1.78,5.8,5.8,0,0,1-2.86,1.72,4.39,4.39,0,0,1-3.42-.89,4.69,4.69,0,0,1-2.11-4.48,10.43,10.43,0,0,1,2.72-6.12,20.6,20.6,0,0,0,2.61-3.4,16,16,0,0,0,1.86-5.75,10.07,10.07,0,0,0-1.15-6.28,4.09,4.09,0,0,0-3.16-2.24,7.92,7.92,0,0,0-3.44.46,9.37,9.37,0,0,0-4.83,4.2,2.8,2.8,0,0,0-.4,1.62q.13,6.25.23,12.5c0,.1,0,.2,0,.31" transform="translate(-0.83 -1)" fill="#1d1d1b"/><path d="M426.74,968.28a3.8,3.8,0,1,0-.16-7.6,3.8,3.8,0,0,0,.16,7.6m-2.26-20.87-3.79.07a.17.17,0,0,0-.17.14,12.32,12.32,0,0,1-6.23,9,12,12,0,0,1-5,1.53.77.77,0,0,1-.84-.75l0-2.29a.75.75,0,0,1,.66-.75,8.59,8.59,0,0,0,7.71-9.18,8.62,8.62,0,0,0-7.93-7.91.84.84,0,0,1-.76-.81l0-2.26a.71.71,0,0,1,.75-.72,12.12,12.12,0,0,1,7.32,2.84,12.24,12.24,0,0,1,4.28,7.24.19.19,0,0,0,.18.15l3.62-.07a.17.17,0,0,0,.18-.18l-.14-8.34a1,1,0,0,1,1-1l1.94,0a.88.88,0,0,1,.9.87l.15,8.43a.18.18,0,0,0,.18.18l3.63-.07a.16.16,0,0,0,.17-.15,12.34,12.34,0,0,1,5.5-8.52,12.17,12.17,0,0,1,4.22-1.75,2,2,0,0,1,2.33,1.89,1.83,1.83,0,0,1-1.49,1.83,8.39,8.39,0,0,0-5.63,4,8.11,8.11,0,0,0-1.21,5.26,8.59,8.59,0,0,0,7,7.61,2,2,0,0,1,1.66,1.9v.23a1.64,1.64,0,0,1-1.84,1.67,12,12,0,0,1-6.22-2.74,12.24,12.24,0,0,1-4.27-7.23.18.18,0,0,0-.18-.15l-3.81.07c0,.1,0,.2,0,.3l.15,9.16c0,.25.09.32.31.39a7.3,7.3,0,0,1,5.43,6.09,7.61,7.61,0,0,1-15,2.58,7.93,7.93,0,0,1,5.56-8.71" transform="translate(-0.83 -1)" fill="#1d1d1b"/><path d="M220.58,872.45c-1.22-.16-2.4-.25-3.56-.46a9.91,9.91,0,0,1-4.9-2.27,11,11,0,0,1-3.18-5.35,26.06,26.06,0,0,1-.91-7.66c0-2.08.17-4.16.27-6.24,0-.35,0-.71.09-1.14l-1.78,1.48a.68.68,0,0,1-1-.13l-1.12-1.52a.8.8,0,0,1,.12-1.08l5.33-4.46a.91.91,0,0,1,1.34.18l4.16,5.86a.73.73,0,0,1-.13,1l-1.48,1.19a.71.71,0,0,1-1-.14L211.59,850c-.07.91-.17,1.7-.19,2.5-.06,1.87-.14,3.75-.1,5.62a18.52,18.52,0,0,0,1.07,6.21,6.21,6.21,0,0,0,4.67,4.15c1.07.24,2.19.3,3.29.44h.19l-.27-15.17s0,0,0,0l-1.37,1.4a.93.93,0,0,1-1.34,0L216.39,854a.84.84,0,0,1,0-1.13l4.71-5.4a.74.74,0,0,1,1.12,0l5,5.17a.75.75,0,0,1,0,1L225.88,855a.66.66,0,0,1-1,0l-1.24-1.35-.12.05.27,15.13c.53-.05,1.06-.1,1.59-.17a10.69,10.69,0,0,0,3.08-.85,6.47,6.47,0,0,0,3.46-4.37,16.13,16.13,0,0,0,.65-4.42c0-1.74,0-3.49-.1-5.23a37.1,37.1,0,0,0-.45-3.84c-.41.6-.81,1.2-1.23,1.8a.68.68,0,0,1-1,.17l-1.52-1.18a.73.73,0,0,1-.15-1l4.2-6.19a.61.61,0,0,1,.9-.15L239,848a.7.7,0,0,1,.13,1L238,850.65a.61.61,0,0,1-.9.14l-1.75-1.39c.12,1,.13,1.05.32,3.14.16,1.69.26,3.38.26,5.08a24.6,24.6,0,0,1-.86,6.94,9.75,9.75,0,0,1-7,7.1,18.1,18.1,0,0,1-3.93.63l-.24,0c0,1.63.06,3.25.09,4.89l5.25-.09a.76.76,0,0,1,.74.76l0,2a.7.7,0,0,1-.66.73l-5.32.09c0,.19,0,.33,0,.48,0,1.92.06,3.62.1,5.54a.61.61,0,0,1-.54.6c-.85,0-1.29,0-2.14,0a.64.64,0,0,1-.58-.62c0-1.93-.06-3.61-.1-5.55v-.41l-5.12.09a.92.92,0,0,1-.91-.95l0-1.53a.92.92,0,0,1,.86-1l5.11-.09Z" transform="translate(-0.83 -1)" fill="#1d1d1b"/><path d="M79.5,677.43H72.8c-1.2-.06-1.2-.06-1.17,1.18v8H68.12c-.56,0-.56,0-.56-.54v-8.67H59.68a1.18,1.18,0,0,1-1.17-1.18v-1.67a1.17,1.17,0,0,1,1.17-1.18h7.85c.09,0,.06-.35.06-.47,0-2.63,0-5.2,0-7.82,0-.35-.08-.43-.43-.48a18.28,18.28,0,0,1-10.06-4.71,18.56,18.56,0,0,1-5.84-10.42,10.53,10.53,0,0,1-.3-2.76c0-.84.38-.74.4-.83h2.58a1.05,1.05,0,0,1,1,1,14.65,14.65,0,0,0,6,11,14.12,14.12,0,0,0,9.73,2.83A14.83,14.83,0,0,0,84.25,647a1.18,1.18,0,0,1,1.17-1.09h1.65a1.18,1.18,0,0,1,1.17,1.27A18.83,18.83,0,0,1,72.6,664.56a1.16,1.16,0,0,0-.94,1.15v6.47c0,1.3,0,1.18,1.17,1.18H79.5a1.18,1.18,0,0,1,1.17,1.19v1.69a1.18,1.18,0,0,1-1.17,1.19" transform="translate(-0.83 -1)" fill="#1d1d1b"/><path d="M69.68,653.61A7.79,7.79,0,1,0,62,645.82a7.75,7.75,0,0,0,7.69,7.79m-11.74-7.76a11.76,11.76,0,1,1,23.51.06,11.76,11.76,0,1,1-23.51-.06" transform="translate(-0.83 -1)" fill="#1d1d1b"/><path d="M81.74,328.11v-31a.69.69,0,0,0-1.19-.51L68.47,309.22a.68.68,0,0,1-1,0l-.88-.79a.75.75,0,0,1,0-1.06l15.88-16.76a.67.67,0,0,1,1,0l15.91,16.78a.76.76,0,0,1,0,1.07l-.84.75a.68.68,0,0,1-1,0l-12-12.63a.69.69,0,0,0-1.19.51v31a.71.71,0,0,1-.69.73H82.44a.72.72,0,0,1-.7-.73" transform="translate(-0.83 -1)" fill="#1d1d1b"/><path d="M235.19,109v31a.69.69,0,0,0,1.19.51l12.08-12.61a.69.69,0,0,1,.95,0l.88.79a.76.76,0,0,1,0,1.07l-15.88,16.75a.67.67,0,0,1-1,0l-15.91-16.78a.75.75,0,0,1,0-1.06l.84-.76a.69.69,0,0,1,.95,0c4,4.21,8,8.41,12.05,12.63a.69.69,0,0,0,1.19-.51V109a.71.71,0,0,1,.69-.73h1.19a.71.71,0,0,1,.69.73" transform="translate(-0.83 -1)" fill="#1d1d1b"/></g><line x1="925.05" y1="744.29" x2="494.46" y2="500.67" fill="none" stroke="#1d1d1b" stroke-width="6"/><line x1="497.23" y1="500.03" x2="936.07" y2="271.59" fill="none" stroke="#000" stroke-width="0.33"/><line x1="498.37" y1="502.21" x2="937.2" y2="273.77" fill="none" stroke="#000" stroke-width="0.33"/><line x1="499.47" y1="504.34" x2="938.31" y2="275.9" fill="none" stroke="#000" stroke-width="0.33"/></svg>